<svg xmlns="http://www.w3.org/2000/svg" xmlns:xlink="http://www.w3.org/1999/xlink" id="Capa_1" x="0" y="0" version="1.1" viewBox="0 0 511.997 511.997" xml:space="preserve" style="enable-background:new 0 0 511.997 511.997"><polygon style="fill:#ffdb0c" points="461.546 358.494 488.623 181.47 418.964 252.289 399.536 128.762 310.874 235.145 256 82.009 201.126 235.145 112.464 128.762 93.036 252.289 23.377 181.47 50.454 358.494 50.454 405.928 461.546 405.928"/><polygon style="fill:#fbbf00" points="461.546 358.494 488.623 181.47 418.964 252.289 399.536 128.762 310.874 235.145 256 82.009 256 405.928 461.546 405.928"/><rect style="fill:#ffa900" width="411.09" height="94.87" x="50.45" y="358.497"/><g><rect style="fill:#f80" width="205.55" height="94.87" x="256" y="358.497"/><circle style="fill:#f80" cx="23.377" cy="181.467" r="23.377"/></g><circle style="fill:#ff421d" cx="112.46" cy="128.757" r="23.377"/><circle style="fill:#de0418" cx="256" cy="82.007" r="23.377"/><circle style="fill:#870215" cx="488.62" cy="181.467" r="23.377"/><circle style="fill:#a3021a" cx="399.54" cy="128.757" r="23.377"/></svg>